<?xml version="1.0" encoding="iso-8859-1"?>
<!-- Generator: Adobe Illustrator 19.0.0, SVG Export Plug-In . SVG Version: 6.00 Build 0)  -->
<svg version="1.1" id="Capa_1" xmlns="http://www.w3.org/2000/svg" xmlns:xlink="http://www.w3.org/1999/xlink" x="0px" y="0px"
	 viewBox="0 0 511.151 511.151" style="enable-background:new 0 0 511.151 511.151;" fill="#DC143C" xml:space="preserve">
<g>
	<g>
		<path d="M443.524,153.261C384.73,88.536,306.458,52.909,223.151,52.909S61.572,88.536,2.778,153.261
			c-3.968,4.352-3.648,11.115,0.725,15.061c4.373,3.947,11.115,3.669,15.061-0.725c54.72-60.203,127.36-93.355,204.587-93.355
			s149.867,33.152,204.587,93.355c2.112,2.325,4.992,3.499,7.893,3.499c2.56,0,5.141-0.917,7.168-2.752
			C447.151,164.375,447.492,157.634,443.524,153.261z"/>
	</g>
</g>
<g>
	<g>
		<path d="M388.698,213.591c-44.16-48.597-102.955-75.349-165.547-75.349s-121.387,26.752-165.568,75.349
			c-3.947,4.373-3.627,11.115,0.725,15.083c4.395,3.968,11.136,3.648,15.083-0.725c40.064-44.096,93.248-68.373,149.76-68.373
			c56.512,0,109.696,24.277,149.76,68.352c2.112,2.325,4.992,3.499,7.893,3.499c2.56,0,5.12-0.917,7.168-2.752
			C392.324,224.706,392.666,217.965,388.698,213.591z"/>
	</g>
</g>
<g>
	<g>
		<path d="M316.932,257.005c-50.24-45.227-144.405-49.216-204.48,16.917c-3.947,4.373-3.627,11.115,0.725,15.083
			c2.048,1.856,4.608,2.773,7.168,2.773c2.88,0,5.781-1.173,7.893-3.499c51.541-56.704,131.797-53.781,174.421-15.424
			c4.395,3.947,11.115,3.605,15.061-0.789S321.306,260.951,316.932,257.005z"/>
	</g>
</g>
<g>
	<g>
		<path d="M223.151,308.909c-29.397,0-53.333,23.936-53.333,53.333s23.936,53.333,53.333,53.333s53.333-23.936,53.333-53.333
			S252.548,308.909,223.151,308.909z M223.151,394.242c-17.643,0-32-14.357-32-32s14.357-32,32-32c17.643,0,32,14.357,32,32
			S240.794,394.242,223.151,394.242z"/>
	</g>
</g>
<g>
	<g>
		<path d="M393.818,223.575c-64.704,0-117.333,52.629-117.333,117.333s52.629,117.333,117.333,117.333
			s117.333-52.629,117.333-117.333S458.522,223.575,393.818,223.575z M393.818,436.909c-52.928,0-96-43.072-96-96
			c0-52.928,43.072-96,96-96c52.928,0,96,43.072,96,96C489.818,393.837,446.746,436.909,393.818,436.909z"/>
	</g>
</g>
<g>
	<g>
		<path d="M444.015,376.045l-85.333-85.333c-4.16-4.16-10.923-4.16-15.083,0c-4.16,4.16-4.16,10.923,0,15.083l85.333,85.333
			c2.091,2.069,4.821,3.115,7.552,3.115s5.461-1.045,7.531-3.115C448.175,386.967,448.175,380.205,444.015,376.045z"/>
	</g>
</g>
<g>
	<g>
		<path d="M444.015,290.711c-4.16-4.16-10.923-4.16-15.083,0l-85.333,85.333c-4.16,4.16-4.16,10.923,0,15.083
			c2.091,2.069,4.821,3.115,7.552,3.115c2.731,0,5.461-1.045,7.531-3.115l85.333-85.333
			C448.175,301.634,448.175,294.871,444.015,290.711z"/>
	</g>
</g>
</svg>
